<?xml version="1.0" encoding="UTF-8" standalone="no"?>
<!-- Created with Inkscape (http://www.inkscape.org/) -->

<svg
   id="svg2"
   xml:space="preserve"
   height="319.04"
   width="318.49"
   version="1.0"
   sodipodi:docname="icon.svg"
   inkscape:version="1.4 (e7c3feb1, 2024-10-09)"
   xmlns:inkscape="http://www.inkscape.org/namespaces/inkscape"
   xmlns:sodipodi="http://sodipodi.sourceforge.net/DTD/sodipodi-0.dtd"
   xmlns="http://www.w3.org/2000/svg"
   xmlns:svg="http://www.w3.org/2000/svg"><defs
     id="defs1" /><sodipodi:namedview
     id="namedview1"
     pagecolor="#ffffff"
     bordercolor="#000000"
     borderopacity="0.25"
     inkscape:showpageshadow="2"
     inkscape:pageopacity="0.0"
     inkscape:pagecheckerboard="0"
     inkscape:deskcolor="#d1d1d1"
     showgrid="false"
     inkscape:zoom="1.5488091"
     inkscape:cx="79.415857"
     inkscape:cy="115.24984"
     inkscape:window-width="1456"
     inkscape:window-height="916"
     inkscape:window-x="56"
     inkscape:window-y="38"
     inkscape:window-maximized="1"
     inkscape:current-layer="layer1" /><path
     id="exclusion-zone"
     d="M 68.59,143.12 H 322.38 V 397.36 H 68.59 Z"
     transform="matrix(1.2549,0,0,-1.2549,-86.075,498.65)"
     fill="#ffffff"
     style="display:none" /><path
     id="FT-Pink"
     d="M 181.05,557.07 V 736.01 H 359.98 V 557.07 Z"
     transform="matrix(0,-1.25,-1.25,0,966.62,497.94)"
     fill="#fcd0af"
     style="display:inline" /><path
     id="FT"
     d="m -13.443,389.44 c 0,-8.44 2.254,-9.39 11.882,-9.75 l 2e-4,-3.09 h -38.269 v 3.09 c 7.961,0.36 10.219,1.31 10.219,9.75 v 55.14 c 0,8.45 -2.258,9.4 -9.981,9.75 v 3.1 h 67.504 l 0.481,-17.83 h -3.329 c -2.855,9.03 -5.945,11.88 -21.753,11.88 h -12.247 c -3.675,0 -4.507,-0.83 -4.507,-4.16 v -25.56 h 6.0312 c 12.601,0 15.336,2.27 16.879,10.71 h 3.0898 V 403.94 H 9.4674 c -1.664,9.51 -6.418,11.88 -16.879,11.88 h -6.0312 v -26.38 z m 117.8,67.99 H 33.515 L 31.87,439.59 h 4.063 c 2.593,8.73 6.406,11.89 14.933,11.89 h 9.985 v -62.04 c 0,-8.44 -2.258,-9.39 -11.411,-9.75 v -3.09 h 38.989 v 3.09 c -9.153,0.36 -11.41,1.31 -11.41,9.75 v 62.04 h 9.98 c 8.527,0 12.348,-3.16 14.938,-11.89 h 4.06 z"
     transform="matrix(1.25,0,0,-1.25,120.63,651.49)"
     fill="#3e474f"
     style="display:inline" /><g
     inkscape:groupmode="layer"
     id="layer1"
     inkscape:label="Lock"
     transform="translate(0,13.731995)"><path
       id="rect1"
       style="fill:#00ff00;stroke-width:0.857456"
       d="m 86.769133,126.53569 c -4.686949,0 -8.459151,3.77369 -8.459151,8.46065 v 102.81479 c 0,4.68695 3.772202,8.46066 8.459151,8.46066 H 231.72087 c 4.68694,0 8.45914,-3.77371 8.45914,-8.46066 V 134.99634 c 0,-4.68696 -3.7722,-8.46065 -8.45914,-8.46065 z m 8.487619,9.66674 H 223.23325 c 4.13808,0 7.4688,3.33073 7.4688,7.46881 v 86.62015 c 0,4.13809 -3.33072,7.46881 -7.4688,7.46881 H 95.256752 c -4.138085,0 -7.468805,-3.33072 -7.468805,-7.46881 v -86.62015 c 0,-4.13808 3.33072,-7.46881 7.468805,-7.46881 z" /><path
       id="path2"
       style="fill:#00ff00;stroke-width:1.15683"
       d="m 159.24386,158.05902 a 21.180782,21.180782 0 0 0 -21.17993,21.17993 21.180782,21.180782 0 0 0 10.63063,18.31046 l -4.0105,19.03347 c -0.39658,1.8813 1.54784,3.47049 3.4705,3.47049 h 22.18086 c 1.92265,0 3.86708,-1.58919 3.47049,-3.47049 l -4.0105,-19.03347 a 21.180782,21.180782 0 0 0 10.63065,-18.31046 21.180782,21.180782 0 0 0 -21.1822,-21.17993 z" /><path
       id="path5"
       style="fill:#00ff00"
       d="M 159.24414 31.180114 A 62.245998 62.245892 0 0 0 97.080078 92.268005 L 96.998047 92.268005 L 96.998047 93.426208 L 96.998047 131.01019 L 221.49023 131.01019 L 221.49023 126.52972 L 210.05078 126.52972 L 210.05078 126.53363 L 108.43945 126.53363 L 108.43945 94.715271 L 108.43945 93.734802 L 108.50586 93.734802 A 50.805224 52.696133 0 0 1 159.24414 42.019958 A 50.805224 52.696133 0 0 1 209.42578 87.260193 L 221.01562 87.260193 A 62.245998 62.245892 0 0 0 159.24414 31.180114 z " /></g></svg>
